<svg width="16" height="16" viewBox="0 0 16 16" fill="none" xmlns="http://www.w3.org/2000/svg">
<g clip-path="url(#clip0_809_1280)">
<mask id="mask0_809_1280" style="mask-type:luminance" maskUnits="userSpaceOnUse" x="0" y="0" width="16" height="16">
<path d="M16 0H0V16H16V0Z" fill="white"/>
</mask>
<g mask="url(#mask0_809_1280)">
<path d="M15 1H1V15H15V1Z" fill="#2D353A"/>
<path d="M14 0H2V16H14V0Z" fill="#2D353A"/>
<path d="M16 2H0V14H16V2Z" fill="#2D353A"/>
<path d="M14 13H2V15H14V13Z" fill="#4B6077"/>
<path d="M15 2H1V13H15V2Z" fill="#789099"/>
<path d="M14 1H2V11H14V1Z" fill="#789099"/>
<path d="M2 12H1V14H2V12Z" fill="#4B6077"/>
<path d="M15 12H14V14H15V12Z" fill="#4B6077"/>
</g>
</g>
<defs>
<clipPath id="clip0_809_1280">
<rect width="16" height="16" fill="white"/>
</clipPath>
</defs>
</svg>
