<svg width="10" height="10" viewBox="0 0 10 10" fill="none" xmlns="http://www.w3.org/2000/svg">
<g clip-path="url(#clip0_809_1348)">
<mask id="mask0_809_1348" style="mask-type:luminance" maskUnits="userSpaceOnUse" x="0" y="0" width="10" height="10">
<path d="M10 0H0V10H10V0Z" fill="white"/>
</mask>
<g mask="url(#mask0_809_1348)">
<path d="M10 2H0V8H10V2Z" fill="#2D353A"/>
<path d="M8 0H2V10H8V0Z" fill="#2D353A"/>
<path d="M9 1H1V9H9V1Z" fill="#789099"/>
<path d="M8 2H2V8H8V2Z" fill="#A4B799"/>
<path d="M2 1H1V2H2V1Z" fill="#2D353A"/>
<path d="M9 1H8V2H9V1Z" fill="#2D353A"/>
<path d="M9 8H8V9H9V8Z" fill="#2D353A"/>
<path d="M2 8H1V9H2V8Z" fill="#2D353A"/>
</g>
</g>
<defs>
<clipPath id="clip0_809_1348">
<rect width="10" height="10" fill="white"/>
</clipPath>
</defs>
</svg>
