<svg width="22" height="23" viewBox="0 0 22 23" fill="none" xmlns="http://www.w3.org/2000/svg">
<g clip-path="url(#clip0_810_1411)">
<path d="M19 0H3C1.34315 0 0 1.34315 0 3V20C0 21.6569 1.34315 23 3 23H19C20.6569 23 22 21.6569 22 20V3C22 1.34315 20.6569 0 19 0Z" fill="#2D353A"/>
<path d="M18 1H4C2.34315 1 1 2.34315 1 4V19C1 20.6569 2.34315 22 4 22H18C19.6569 22 21 20.6569 21 19V4C21 2.34315 19.6569 1 18 1Z" fill="#789099"/>
<path d="M18 2H4C2.89543 2 2 2.89543 2 4V19C2 20.1046 2.89543 21 4 21H18C19.1046 21 20 20.1046 20 19V4C20 2.89543 19.1046 2 18 2Z" fill="#A4B799"/>
<path d="M18 3H4C3.44772 3 3 3.44772 3 4V19C3 19.5523 3.44772 20 4 20H18C18.5523 20 19 19.5523 19 19V4C19 3.44772 18.5523 3 18 3Z" fill="#789099"/>
<path d="M18 4H4V19H18V4Z" fill="#2D353A"/>
</g>
<defs>
<clipPath id="clip0_810_1411">
<rect width="22" height="23" fill="white"/>
</clipPath>
</defs>
</svg>
