<svg width="512" height="512" viewBox="0 0 512 512" fill="none" xmlns="http://www.w3.org/2000/svg">
<g clip-path="url(#clip0_738_111)">
<path d="M256 10.668C114.56 10.668 0 123.308 0 262.231C0 373.399 73.344 467.671 175.04 500.908C187.84 503.276 192.533 495.489 192.533 488.812C192.533 482.839 192.32 467.009 192.213 446.039C121.003 461.207 105.984 412.289 105.984 412.289C94.336 383.255 77.504 375.489 77.504 375.489C54.3147 359.895 79.296 360.215 79.296 360.215C105.003 361.964 118.507 386.135 118.507 386.135C141.333 424.599 178.432 413.484 193.067 407.063C195.371 390.785 201.963 379.713 209.28 373.42C152.427 367.127 92.672 345.495 92.672 249.111C92.672 221.655 102.592 199.212 119.019 181.612C116.139 175.255 107.499 149.676 121.259 115.031C121.259 115.031 142.699 108.289 191.659 140.823C212.139 135.233 233.899 132.46 255.659 132.332C277.419 132.46 299.179 135.233 319.659 140.823C368.299 108.289 389.739 115.031 389.739 115.031C403.499 149.676 394.859 175.255 392.299 181.612C408.619 199.212 418.539 221.655 418.539 249.111C418.539 345.751 358.699 367.02 301.739 373.207C310.699 380.759 319.019 396.183 319.019 419.756C319.019 453.42 318.699 480.471 318.699 488.641C318.699 495.233 323.179 503.105 336.299 500.588C438.72 467.564 512 373.228 512 262.231C512 123.308 397.376 10.668 256 10.668Z" fill="white"/>
</g>
<defs>
<clipPath id="clip0_738_111">
<rect width="512" height="512" fill="white"/>
</clipPath>
</defs>
</svg>
