<svg width="512" height="512" viewBox="0 0 512 512" fill="none" xmlns="http://www.w3.org/2000/svg">
<path d="M128.586 435.377H384.586V486.577H128.586V435.377ZM179.786 332.977H333.386V384.177H179.786V332.977ZM179.786 230.577H333.386V281.777H179.786V230.577ZM179.786 128.177H333.386V179.377H179.786V128.177ZM128.586 25.7773H384.586V76.9773H128.586V25.7773Z" fill="white"/>
<path d="M128.598 76.8242H77.3976C77.4488 196.335 77.3464 315.636 77.3976 435.147H128.598C128.546 315.636 128.649 196.335 128.598 76.8242ZM435.772 77.0546H384.572C384.623 196.561 384.521 315.867 384.572 435.378H435.772C435.721 315.867 435.823 196.561 435.772 77.0546Z" fill="white"/>
</svg>
